<svg width="408" height="638" viewBox="0 0 408 638" fill="none" xmlns="http://www.w3.org/2000/svg">
<g filter="url(#filter0_d)">
<rect y="230" width="400" height="400" rx="20" fill="#9BF6FF"/>
</g>
<path d="M313.236 431.2C318.036 431.2 320.436 438.267 320.436 452.4C320.436 475.067 315.503 493.2 305.636 506.8C296.036 520.4 281.903 527.2 263.236 527.2C244.569 527.2 230.169 520.8 220.036 508C210.169 495.2 205.236 477.067 205.236 453.6V406.8C205.236 375.067 197.236 359.2 181.236 359.2C167.103 359.2 155.503 366.4 146.436 380.8C137.369 395.2 132.836 419.333 132.836 453.2V521.6C130.169 525.333 125.503 527.2 118.836 527.2C112.169 527.2 106.836 525.2 102.836 521.2C98.8359 516.933 96.8359 510.8 96.8359 502.8V350.8C99.5026 347.067 104.569 345.2 112.036 345.2C125.903 345.2 132.836 355.2 132.836 375.2C144.036 355.2 161.769 345.2 186.036 345.2C203.369 345.2 217.103 350.667 227.236 361.6C237.636 372.533 242.836 388.267 242.836 408.8V465.6C242.836 480.8 245.236 492.267 250.036 500C254.836 507.733 261.903 511.6 271.236 511.6C280.836 511.6 289.236 505.733 296.436 494C303.636 482 307.236 461.867 307.236 433.6C307.503 432 309.503 431.2 313.236 431.2Z" fill="black"/>
<path d="M273.477 455.8C268.143 455.8 263.61 453.933 259.877 450.2C256.41 446.467 254.677 442.067 254.677 437C254.677 431.667 256.41 427.133 259.877 423.4C263.61 419.667 268.143 417.8 273.477 417.8C278.81 417.8 283.343 419.667 287.077 423.4C290.81 427.133 292.677 431.667 292.677 437C292.677 442.333 290.81 446.867 287.077 450.6C283.343 454.067 278.81 455.8 273.477 455.8Z" fill="black"/>
<defs>
<filter id="filter0_d" x="0" y="230" width="408" height="408" filterUnits="userSpaceOnUse" color-interpolation-filters="sRGB">
<feFlood flood-opacity="0" result="BackgroundImageFix"/>
<feColorMatrix in="SourceAlpha" type="matrix" values="0 0 0 0 0 0 0 0 0 0 0 0 0 0 0 0 0 0 127 0"/>
<feOffset dx="4" dy="4"/>
<feGaussianBlur stdDeviation="2"/>
<feColorMatrix type="matrix" values="0 0 0 0 0 0 0 0 0 0 0 0 0 0 0 0 0 0 0.1 0"/>
<feBlend mode="normal" in2="BackgroundImageFix" result="effect1_dropShadow"/>
<feBlend mode="normal" in="SourceGraphic" in2="effect1_dropShadow" result="shape"/>
</filter>
</defs>
</svg>
